<svg width="38" height="38" viewBox="0 0 38 38" fill="none" xmlns="http://www.w3.org/2000/svg">
<g filter="url(#filter0_d)">
<ellipse cx="18.7143" cy="18" rx="11.7143" ry="12" fill="white"/>
<path d="M17.124 28.6719L17.1705 28.6772L17.124 28.6719Z" fill="#C1C1C1"/>
<path d="M8.5295 21.5734C8.50627 21.5177 8.47973 21.46 8.46313 21.4209C8.48172 21.4912 8.49167 21.5455 8.50694 21.592C8.52257 21.6371 8.54718 21.6786 8.57928 21.714C8.5696 21.6649 8.55283 21.6176 8.5295 21.5734Z" fill="#C1C1C1"/>
<path d="M29.1371 21.8527C29.1371 21.8328 29.1239 21.8607 29.0986 21.9223C29.0734 21.984 29.0409 22.0801 28.9905 22.1915C28.9659 22.2505 28.9387 22.3142 28.9102 22.3805C28.9175 22.3672 28.9241 22.3533 28.9307 22.34L29.0681 22.0748C29.0933 22.0204 29.1192 21.9661 29.1451 21.911C29.1597 21.85 29.1604 21.8235 29.1371 21.8527Z" fill="#C1C1C1"/>
<path d="M12.4018 27.4991L12.1589 27.3234C11.9963 27.202 11.833 27.0727 11.6737 26.9494C11.5144 26.8261 11.3678 26.6935 11.235 26.5715C11.22 26.5629 11.2056 26.5534 11.1919 26.543C11.693 27.0073 12.2355 27.425 12.8126 27.7908C12.7556 27.7497 12.6965 27.7073 12.6334 27.6648C12.5545 27.6144 12.4781 27.5568 12.4018 27.4991Z" fill="#C1C1C1"/>
<path d="M28.6493 23.5881L28.6553 23.5834C29.3375 22.2996 29.7603 20.8943 29.8997 19.4474L29.8957 19.4746C29.9455 18.9143 29.8917 18.7452 29.7869 19.4388C29.7928 19.5144 29.7955 19.5893 29.7995 19.6649C29.7716 19.7517 29.7444 19.82 29.7185 19.8916C29.7052 19.9281 29.6933 19.9652 29.68 20.0063L29.6674 20.0441C29.6548 20.1701 29.6422 20.2994 29.6276 20.4347C29.6481 20.3617 29.6747 20.253 29.7119 20.0806C29.7154 20.3483 29.6869 20.6154 29.6269 20.8763C29.6116 20.9518 29.5964 21.0288 29.5811 21.1057C29.5659 21.1826 29.5433 21.2575 29.5247 21.3331L29.4716 21.5559C29.463 21.5923 29.455 21.6288 29.447 21.6639C29.4391 21.6991 29.4291 21.7336 29.4205 21.7674C29.3395 21.9663 29.2831 22.1234 29.2214 22.2567L29.0522 22.624L29.0376 22.6545C28.9765 22.8057 28.9128 22.9562 28.8444 23.1054C28.6837 23.4576 28.5024 23.8001 28.3015 24.1311C28.318 24.1196 28.3333 24.1065 28.3473 24.092C28.3676 24.072 28.3869 24.051 28.4051 24.029C28.4369 23.9746 28.4714 23.9209 28.5 23.8666L28.5066 23.8407L28.5232 23.8248C28.5477 23.781 28.573 23.7373 28.5969 23.6922C28.5842 23.6995 28.5842 23.6889 28.6493 23.5881Z" fill="#C1C1C1"/>
<path d="M29.7129 19.5609C29.6996 19.7008 29.687 19.842 29.673 19.9879C29.6956 19.8812 29.7135 19.7777 29.7348 19.6789C29.7494 19.6051 29.764 19.5335 29.7786 19.4641C29.7899 19.3945 29.8011 19.3262 29.8118 19.2599C29.8337 19.1273 29.8582 19.0026 29.8781 18.884C29.898 18.7653 29.9173 18.6532 29.9405 18.5465C29.8741 18.8342 29.9 18.5889 29.9219 18.2965C29.9279 18.1334 29.9359 17.9557 29.9352 17.8476C29.9067 18.0245 29.8556 18.1969 29.7832 18.3608C29.7544 18.2231 29.7375 18.0831 29.7328 17.9424C29.7295 17.894 29.7255 17.845 29.7222 17.7966C29.7188 17.7482 29.7102 17.7011 29.7049 17.656C29.6936 17.5665 29.683 17.4876 29.6737 17.4332C29.6737 17.3629 29.6777 17.2973 29.6797 17.2343C29.6817 17.1713 29.6797 17.1103 29.6797 17.0513C29.6797 16.932 29.6757 16.8173 29.6704 16.6953C29.6471 16.3888 29.5996 16.0846 29.5284 15.7856C29.5118 15.7285 29.4925 15.6649 29.4719 15.5953C29.4514 15.5257 29.4255 15.4521 29.4003 15.3732L29.3259 15.1232C29.2987 15.037 29.2649 14.9495 29.2337 14.858L29.1381 14.5835C29.1016 14.4926 29.0644 14.4018 29.0286 14.311C28.9928 14.2201 28.9576 14.1306 28.9184 14.0458C28.8793 13.9609 28.8401 13.8767 28.8023 13.7965C28.7644 13.7162 28.7299 13.6393 28.6928 13.5684L28.5852 13.3695C28.5339 13.2736 28.4774 13.1807 28.416 13.091C28.3231 12.9683 28.2945 12.9756 28.3616 13.1891C28.2693 13.0359 28.185 12.8974 28.1087 12.7714C28.0324 12.6454 27.9567 12.5353 27.8937 12.4326L27.7994 12.2907C27.7689 12.2449 27.7404 12.2025 27.7138 12.1581C27.6601 12.0759 27.6129 12.0016 27.5718 11.9333L27.514 11.8352L27.4603 11.7503C27.4264 11.6946 27.3939 11.6429 27.3694 11.5945C27.3136 11.4977 27.2738 11.4088 27.2247 11.3293C27.1756 11.2497 27.1278 11.1622 27.0647 11.0674C27.0335 11.0203 26.9984 10.9686 26.9579 10.9155C26.9174 10.8625 26.8683 10.8061 26.8138 10.7438C26.7594 10.6815 26.6984 10.6145 26.6287 10.5403C26.559 10.466 26.4734 10.3924 26.3805 10.3075L26.2338 10.1749L26.0632 10.0383C25.9424 9.94353 25.8123 9.83943 25.6584 9.73467C25.442 9.60206 25.1367 9.38525 24.8048 9.17108C24.6383 9.06566 24.473 8.95228 24.2984 8.85614L24.0502 8.70961C23.9686 8.66386 23.8883 8.62341 23.8133 8.58297C23.6626 8.5034 23.5286 8.43246 23.4151 8.38406C23.3385 8.34839 23.26 8.31675 23.1801 8.28924C23.0925 8.26405 23.1602 8.32505 23.4615 8.51998C23.3812 8.50075 23.3208 8.48418 23.2412 8.45898L23.1011 8.41257C23.0467 8.39334 22.9823 8.37146 22.902 8.34626C22.7381 8.27068 22.6047 8.20371 22.5038 8.15133C22.4373 8.12328 22.3744 8.08721 22.3167 8.04392C22.2941 8.02137 22.3167 8.01342 22.383 8.0227C22.5012 8.04289 22.6172 8.07419 22.7295 8.11619C22.7295 8.07972 22.2271 7.89606 21.8839 7.80191C21.2946 7.68389 20.8831 7.71372 20.3906 7.70842C20.1351 7.69118 19.8816 7.66532 19.626 7.66532C19.0851 7.57316 19.4369 7.56918 19.8351 7.56653C20.2267 7.57714 20.6568 7.60432 20.2459 7.50022L19.9592 7.46575C19.8743 7.45381 19.7979 7.45315 19.7296 7.44851C19.5968 7.44188 19.49 7.43989 19.4083 7.44055C19.3021 7.44209 19.1965 7.45793 19.0944 7.48763C18.9986 7.51561 18.9 7.53296 18.8004 7.53934C18.7287 7.54664 18.6385 7.55658 18.5216 7.56321C18.9756 9.94485 20.3442 20.6105 20.3335 20.7259L20.3594 20.757C20.5839 20.6317 20.7607 20.436 20.8625 20.2001L20.895 20.1643L20.8698 20.1238H20.832L20.891 19.8991L20.901 19.7943C20.9581 19.7996 21.0078 19.7466 21.0503 19.6358L20.9899 19.5629C21.3682 18.3319 21.6746 17.7272 21.9091 17.7488L22.0937 17.6222L22.2523 17.6752L22.6266 17.6719L23.6958 18.3575C23.8164 18.4846 23.9163 18.6298 23.9918 18.7878L25.1148 21.5348C25.1374 21.6329 25.1646 21.6833 25.1964 21.6866C25.1964 21.6866 25.2031 22.0294 25.3331 22.0732L25.3464 22.2376L25.3205 22.5134C25.3347 23.3913 25.373 23.9739 25.4354 24.2612L25.4294 24.3275L25.3597 25.7862L25.2177 25.8691L24.9416 25.8432C24.4004 25.601 24.1389 25.3846 24.1571 25.1941C23.7509 24.6769 23.5615 24.2723 23.589 23.9801L23.419 23.5604L23.4602 23.5259L23.4383 23.3515L23.4668 23.0472L23.5239 22.8483L23.498 22.711L23.587 22.4796L23.5744 22.3059L23.6215 22.107L23.5737 21.9008L23.5412 21.7682C23.5027 21.7646 23.4686 21.6495 23.439 21.4227C23.3947 21.4188 23.3301 21.2528 23.2452 20.9248L23.1788 20.9188L23.1848 20.8525L23.2266 20.818V20.7895C23.1695 20.7842 23.0573 20.649 22.8901 20.3838L22.8078 20.4428L22.6843 20.3261L22.0817 20.6052L21.9702 20.6715C21.6016 20.9765 21.3954 21.1268 21.3516 21.1224C21.2607 21.133 21.2103 21.1953 21.1997 21.31L21.2242 21.3505V21.379L21.047 21.4294L21.0749 21.5374L21.0689 21.6037L21.0649 21.6415C21.0043 21.745 20.8702 21.8444 20.6627 21.9399C20.6707 22.1262 20.6402 22.1779 20.6402 22.1779L20.5738 22.1713L20.4503 22.774L20.4344 22.9451L20.459 22.9862V23.0147L20.4875 23.1228L20.1995 24.3527L20.2247 24.4893L20.1484 24.5881L20.234 24.7015C20.1099 24.7923 20.0462 24.8626 20.0408 24.9136C20.1488 24.9234 20.2059 25.0661 20.2121 25.342L20.2373 25.3831L20.0627 25.5011L20.0282 25.4593L20.0694 25.4341L20.0754 25.3678L20.0156 25.1895H19.9864C19.7094 25.4131 19.4504 25.5137 19.2092 25.4911L19.1688 25.5157L19.1462 25.7537L19.2126 25.7597L19.2026 25.8644L19.1362 25.8585L19.1462 25.7537L19.0134 25.7411L18.953 25.6682L19.0931 25.6145V25.586C18.8708 25.5647 18.7758 25.3837 18.8077 25.0409C18.7413 25.0343 18.663 24.8453 18.5827 24.4727L18.6677 24.2798L18.6099 24.1783L18.6902 24.0417L18.7619 22.9643L18.7659 22.9258L18.8064 22.7932L18.7818 22.7521V22.7236L18.8137 22.6885C18.807 20.9991 18.5163 16.1781 18.3849 15.7199C18.3787 15.7049 18.3704 15.6909 18.3604 15.6782C18.2077 15.4395 17.2089 9.63057 16.8339 7.74024L16.654 7.77273C16.5571 7.78997 16.4622 7.81583 16.3673 7.83904L16.0932 7.90468L15.835 7.97098C15.176 8.14669 14.7578 8.28062 15.0943 8.04789C15.0319 8.06978 14.9722 8.09497 14.9118 8.1195L14.732 8.19177L14.5514 8.25808C14.491 8.27996 14.4333 8.30714 14.3736 8.33101L14.0172 8.47556L13.6627 8.64065C13.153 8.87179 12.6747 9.16654 12.2391 9.51785C12.1256 9.63985 12.1528 9.67831 12.0951 9.7718C12.0459 9.84664 11.9877 9.91522 11.9219 9.97601C11.8734 10.0224 11.8183 10.0834 11.746 10.1524C11.6737 10.2213 11.5867 10.3009 11.4852 10.3984C11.2861 10.531 11.14 10.6238 11.0206 10.7133C10.9011 10.8028 10.8002 10.8831 10.6814 10.9858C10.5626 11.0886 10.4332 11.2245 10.2533 11.4208L9.94871 11.7735C9.89362 11.8445 9.83389 11.9207 9.77084 12.0029C9.70779 12.0851 9.6381 12.1707 9.57173 12.2681C9.78013 11.8922 9.53125 12.1766 9.35205 12.3928L9.32351 12.4259C9.07717 12.8194 8.85551 13.2277 8.65981 13.6486C8.80848 13.4643 9.00958 13.1845 9.23656 12.8795C9.23656 12.9869 9.22993 13.093 9.22926 13.1991C9.14962 13.3151 9.05869 13.4643 8.96379 13.6406C8.91998 13.7295 8.87485 13.8243 8.83105 13.9231C8.78724 14.0219 8.7368 14.122 8.69831 14.2327L8.57088 14.5643C8.52907 14.6756 8.49588 14.791 8.45805 14.9037C8.37974 15.1285 8.32531 15.3579 8.26425 15.5668C8.20253 15.8983 8.53504 14.7996 8.33062 15.6331C8.28483 15.7219 8.26425 15.6443 8.20983 15.8187C8.18014 15.954 8.1615 16.0915 8.15408 16.2298C8.15408 16.3279 8.15408 16.4042 8.15408 16.507C8.15408 16.5587 8.14943 16.617 8.1428 16.688C8.13616 16.7589 8.13351 16.8444 8.12355 16.9479C8.11359 17.0513 8.097 17.1746 8.08506 17.3245C8.07311 17.4743 8.05851 17.6494 8.04125 17.8549C8.01338 18.0386 7.98019 18.2242 7.9563 18.4105C7.9592 18.8989 7.9978 19.3865 8.07178 19.8692C8.08837 19.8507 8.07178 19.5861 8.11758 19.8845C8.10069 19.943 8.09572 20.0043 8.10298 20.0648C8.11625 20.1431 8.13085 20.2213 8.14612 20.2995C8.16735 20.3539 8.18328 20.3818 8.19987 20.4182C8.21647 20.4547 8.23903 20.5117 8.27952 20.6264L8.23439 20.6231C8.30076 20.8399 8.35452 21.0117 8.32465 21.0209C8.38046 21.1461 8.42661 21.2753 8.4627 21.4075C8.59544 21.7244 8.4627 21.1423 8.45341 21.0607C8.4919 21.2245 8.53438 21.3597 8.56889 21.4791C8.60424 21.5828 8.63088 21.6892 8.64853 21.7974C8.60937 21.7059 8.56623 21.6157 8.53039 21.5235C8.58026 21.71 8.65036 21.8906 8.73946 22.0619C8.79852 22.1537 8.8347 22.2583 8.84499 22.3669C8.80449 22.2728 8.75884 22.1809 8.70826 22.0917C8.67176 22.0254 8.6492 21.9969 8.66247 22.0612C8.70893 22.1567 8.76202 22.2495 8.8118 22.343C8.81711 22.3822 8.7295 22.1806 8.77795 22.3192C8.82507 22.3974 8.91799 22.5585 8.96843 22.6248L8.99033 22.6387C9.00626 22.6712 8.99365 22.6586 8.96843 22.6248H8.96445C9.05538 22.7926 9.13967 22.9636 9.23524 23.1287C9.2208 23.1003 9.20321 23.0736 9.18281 23.0492C9.17617 23.0452 9.18281 23.0664 9.20803 23.1155L9.4151 23.4317C9.43169 23.4543 9.45227 23.4855 9.48147 23.5345L9.4151 23.4317C9.34873 23.3369 9.39386 23.4477 9.47682 23.5949C9.72903 24.0086 9.76022 23.8713 9.94141 24.1989C9.91021 24.1545 9.90092 24.1498 9.86973 24.1047L9.96597 24.2725C9.98986 24.2678 10.0436 24.3229 10.112 24.4051C10.1803 24.4873 10.2726 24.5967 10.3609 24.7074C10.441 24.8104 10.527 24.9086 10.6184 25.0018C10.6947 25.0794 10.7511 25.1285 10.7763 25.1212C10.929 25.3499 10.7724 25.1517 10.5109 24.913L10.6821 25.1503C10.6018 25.0628 10.5421 24.9833 10.4518 24.8931C10.5566 25.0408 10.6748 25.1787 10.8049 25.3048C10.9257 25.4169 11.0365 25.5071 11.1161 25.5734C11.1619 25.6311 11.1301 25.6224 11.1241 25.635C11.1181 25.6476 11.1394 25.6828 11.2953 25.822C11.7347 26.2159 11.2602 25.6974 11.523 25.9327C11.5721 26.0057 11.6292 26.072 11.6829 26.1383C11.7739 26.2046 11.8568 26.2709 11.9345 26.3372L12.0672 26.4406L12.192 26.5281C12.3247 26.615 12.4575 26.6972 12.5902 26.7861C12.6566 26.8318 12.7289 26.8716 12.8013 26.9147L13.0229 27.0473C13.0973 27.0944 13.1776 27.1381 13.2605 27.1832L13.5161 27.3264C13.6037 27.3782 13.6999 27.4213 13.7968 27.473C13.8937 27.5247 13.9959 27.5791 14.1034 27.6294C14.266 27.6918 14.4293 27.7621 14.6045 27.8284L14.876 27.9265L15.018 27.9795C15.0658 27.9968 15.1162 28.0114 15.1667 28.0279L15.4806 28.1314C15.5894 28.1692 15.7056 28.1977 15.8251 28.2335C16.0627 28.3084 16.3275 28.3661 16.6175 28.4397C16.7939 28.4727 16.9666 28.5229 17.1332 28.5895C17.2957 28.6491 17.4625 28.6958 17.6323 28.7294C17.775 28.74 17.9183 28.7467 18.0604 28.756C18.1194 28.7633 18.1792 28.7732 18.2383 28.7785L18.4121 28.7918C18.596 28.7918 18.7845 28.7918 18.9789 28.7798H18.9836C19.194 28.7473 19.044 28.75 19.405 28.7215C19.1561 28.7513 19.326 28.7573 19.5444 28.744L19.494 28.7493L19.5457 28.744L19.7866 28.7215L19.9074 28.7102L20.0276 28.693C20.1875 28.6691 20.3481 28.6492 20.5054 28.6214L20.8492 28.5796L21.0125 28.559L21.1632 28.5332C21.3061 28.5049 21.4515 28.4913 21.5972 28.4927L21.6032 28.4888V28.4728L21.5813 28.4781L21.6092 28.4437L21.6032 28.4728L21.6357 28.4649L21.783 28.3674L22.0293 28.3117C22.1102 28.2918 22.1872 28.266 22.2655 28.2454C22.3724 28.191 22.527 28.1347 22.8881 27.9994C22.8941 28.0074 22.904 28.0134 22.9458 28.0054L22.9724 27.9981C23.0149 27.9815 23.0587 27.9656 23.1018 27.9477L23.2345 27.8907L23.504 27.7733C23.5976 27.7362 23.6885 27.6871 23.7847 27.6407L24.0841 27.4995L23.96 27.5486C24.0509 27.4975 24.1192 27.4531 24.177 27.416V27.4106L24.1551 27.4219L24.1763 27.3782V27.4106L24.2427 27.3748C24.3004 27.341 24.3442 27.3178 24.3841 27.2986C24.4445 27.2648 24.4942 27.2369 24.5347 27.2091C24.5752 27.1812 24.6077 27.1567 24.6369 27.1342C24.694 27.0891 24.7352 27.0513 24.7849 27.0082C24.8347 26.9651 24.8971 26.9187 24.9893 26.8464C25.0816 26.7741 25.2097 26.6846 25.3955 26.556C25.4035 26.5633 25.4168 26.5659 25.4566 26.546L25.5767 26.4705C25.5283 26.5029 25.4918 26.5248 25.4566 26.546C25.3044 26.6277 25.1589 26.721 25.0212 26.8252C24.998 26.8703 25.0551 26.8477 25.1573 26.7894C25.2942 26.7106 25.4271 26.625 25.5555 26.5328C25.5678 26.5135 25.5833 26.4965 25.6013 26.4824C25.6962 26.4274 25.7712 26.3829 25.8342 26.3445C25.8654 26.3239 25.8946 26.3007 25.9232 26.2782C25.9769 26.2046 26.1648 26.0057 25.8807 26.2477C26.3008 25.881 26.4017 25.7882 26.4462 25.7776C26.4906 25.767 26.4628 25.8233 26.5908 25.7159C26.5977 25.6995 26.6064 25.684 26.6167 25.6695C26.6778 25.6105 26.7269 25.5521 26.7793 25.4991L26.713 25.5508L26.9731 25.2823C26.7884 25.4589 26.5917 25.6226 26.3844 25.7723C26.4548 25.6974 26.5125 25.6397 26.5616 25.5866L26.6811 25.4613C26.734 25.4078 26.7896 25.3572 26.8477 25.3095C26.9183 25.2528 26.9849 25.1912 27.0468 25.1251C27.0899 25.0801 27.141 25.0244 27.2028 24.9547C27.2645 24.8851 27.3355 24.8029 27.4171 24.6955C27.3614 24.7943 27.3587 24.8281 27.4244 24.7737C27.4781 24.7233 27.5286 24.6698 27.5758 24.6133C27.6681 24.508 27.7541 24.3973 27.8333 24.2818C27.7669 24.3534 27.7005 24.425 27.6282 24.4919L27.6747 24.4356L27.5764 24.5297C27.6893 24.3971 27.7875 24.2579 27.8917 24.1206C27.9242 24.0709 27.9713 24.0079 28.0065 23.9609C27.8426 24.1518 27.6859 24.3361 27.7862 24.1657C27.9163 24.0318 28.0391 23.8908 28.1538 23.7434C28.2049 23.6772 28.2645 23.6181 28.3311 23.5677C28.3576 23.5266 28.3828 23.4788 28.416 23.4205C28.4047 23.4636 28.3895 23.5113 28.3715 23.561L28.4133 23.498C28.4937 23.3654 28.5886 23.2129 28.6788 23.0445C28.6841 23.0346 28.6894 23.024 28.6941 23.014C28.6952 23.0072 28.6952 23.0003 28.6941 22.9935C28.6908 22.9729 28.6563 23.0187 28.6277 23.0531L28.6191 23.087C28.5607 23.1619 28.5109 23.2196 28.4598 23.2806L28.4485 23.2998C28.4129 23.3685 28.3735 23.4351 28.3304 23.4994C28.3158 23.5166 28.3065 23.5232 28.3025 23.5186C28.2726 23.5663 28.2408 23.6141 28.2089 23.6631C28.2434 23.6075 28.2753 23.5597 28.3025 23.5173C28.2932 23.5007 28.3271 23.3926 28.4226 23.1539C28.4492 23.1029 28.4784 23.0531 28.5029 23.0008L28.5773 22.8443C28.6271 22.7395 28.6788 22.6354 28.7266 22.5293L28.8594 22.2091C28.8813 22.1554 28.9051 22.1024 28.9257 22.0486L28.9855 21.8862L29.1049 21.5626L29.2085 21.2377L29.2602 21.0773C29.2762 21.0236 29.2894 20.9692 29.304 20.9155L29.391 20.5972C29.5707 19.8623 29.6934 19.1146 29.758 18.3608C29.758 18.5803 29.758 18.7852 29.748 18.9821C29.7381 19.179 29.7301 19.37 29.7129 19.5609ZM20.676 20.346L20.6096 20.3393V20.3108L20.676 20.3168V20.346ZM8.33593 20.7677L8.35053 20.7816L8.37708 20.9632C8.35608 20.8998 8.34227 20.8342 8.33593 20.7677ZM9.59695 23.7228L9.57439 23.6167L9.60359 23.6625L9.59695 23.7228ZM11.0949 25.4839C11.0816 25.4706 11.0684 25.4567 11.0564 25.4434L11.0949 25.4839C11.1613 25.5502 11.2356 25.6211 11.3013 25.6828C11.2907 25.7298 11.2316 25.6277 11.0949 25.4812V25.4839ZM15.2901 8.25808L15.4653 8.21432C15.3777 8.2362 15.2715 8.2667 15.166 8.29852C15.0605 8.33035 14.9609 8.37212 14.88 8.40262C14.868 8.39135 14.9364 8.34759 15.0499 8.29256C15.195 8.22888 15.3442 8.17506 15.4965 8.13144C15.4315 8.1752 15.1043 8.28725 15.2901 8.25543V8.25808ZM18.8873 25.6025L18.8143 25.6629L18.7792 25.6304V25.5926L18.8522 25.5323L18.8907 25.5356L18.8873 25.6025ZM20.2459 24.9395L20.1796 24.9335L20.1855 24.8672L20.2519 24.8732L20.2459 24.9395Z" fill="#C1C1C1"/>
<path d="M28.1257 23.8496C28.1836 23.7961 28.2341 23.735 28.2757 23.668C28.2524 23.668 28.1476 23.7953 28.04 23.9332C27.9969 23.9995 27.9451 24.0625 27.8987 24.1268C27.9681 24.0295 28.044 23.9369 28.1257 23.8496Z" fill="#C1C1C1"/>
<path d="M23.4959 28.4727C23.2483 28.59 22.9908 28.7014 22.7227 28.8042C23.0036 28.6981 23.2791 28.5814 23.549 28.4541L23.4959 28.4727Z" fill="#C1C1C1"/>
<path d="M22.7075 28.8105C22.6259 28.8417 22.5429 28.8709 22.46 28.9001C22.5429 28.8715 22.6226 28.8417 22.7075 28.8105Z" fill="#C1C1C1"/>
<path d="M14.7202 28.4884L14.9193 28.5766L15.0162 28.6177C15.0487 28.6303 15.0825 28.6416 15.1137 28.6528C15.2465 28.6986 15.3686 28.7397 15.4914 28.7782C15.5816 28.8053 15.6712 28.8266 15.7569 28.8478C15.726 28.8142 15.6897 28.7862 15.6493 28.7649C15.5053 28.7198 15.362 28.6774 15.2206 28.623C15.0792 28.5686 14.9339 28.5222 14.7892 28.4645L14.6631 28.4453C14.6809 28.4612 14.7 28.4756 14.7202 28.4884Z" fill="#C1C1C1"/>
<path d="M20.0619 25.0671L20.0557 25.1338L20.094 25.1374L20.1002 25.0707L20.0619 25.0671Z" fill="#C1C1C1"/>
<path d="M21.6889 29.1274C21.5243 29.1718 21.355 29.1967 21.1845 29.2016L21.2781 29.1764L21.1454 29.1937C21.1022 29.199 21.0591 29.2016 21.016 29.2056L20.8421 29.2421C20.7868 29.2567 20.7307 29.2684 20.6742 29.2772C20.6078 29.2905 20.5474 29.3044 20.4824 29.313C20.4399 29.3181 20.3997 29.3348 20.3662 29.3614C20.2753 29.3654 20.2162 29.3614 20.1585 29.3614C19.9866 29.3913 19.812 29.4045 19.6335 29.4218C19.52 29.4218 19.4105 29.4377 19.3056 29.439L19.0089 29.4483C18.916 29.4483 18.8298 29.4523 18.7514 29.4483C18.6865 29.4428 18.6222 29.4322 18.559 29.4165C18.4694 29.4165 18.3798 29.4118 18.2935 29.4072C18.1417 29.3997 17.9908 29.3893 17.8408 29.376C17.822 29.3776 17.8039 29.3835 17.7878 29.3933C17.7176 29.3832 17.6482 29.3686 17.58 29.3495C17.201 29.3066 16.8244 29.2444 16.4517 29.1632L16.017 29.0597L15.5989 28.9377L15.4954 28.9079L15.3951 28.8734L15.196 28.8071L14.9969 28.7408C14.9305 28.7176 14.8708 28.6911 14.8078 28.6666C14.9352 28.7528 14.9226 28.7713 14.8204 28.7474C14.7693 28.7362 14.6963 28.7136 14.6073 28.6811L14.464 28.6314C14.4129 28.6129 14.3604 28.589 14.3047 28.5651C14.006 28.4504 13.6616 28.2754 13.3828 28.1328C14.7331 28.8757 16.2225 29.3319 17.7575 29.4729C19.2926 29.6139 20.8402 29.4367 22.3035 28.9523L21.6889 29.1274Z" fill="#C1C1C1"/>
<path d="M25.8444 27.0031L25.8085 27.0264C25.6818 27.1311 25.5537 27.2339 25.4236 27.3333C25.5729 27.2226 25.7196 27.1092 25.863 26.9912L25.8444 27.0031Z" fill="#C1C1C1"/>
<path d="M9.4355 24.3744C9.06782 23.7511 8.77181 23.1146 8.49438 22.5742C8.55213 22.7619 8.6185 22.9488 8.68487 23.1345C9.06669 23.9383 9.54305 24.6937 10.1038 25.3848C9.86196 25.061 9.63882 24.7236 9.4355 24.3744Z" fill="#C1C1C1"/>
</g>
<defs>
<filter id="filter0_d" x="0" y="0" width="37.4286" height="38" filterUnits="userSpaceOnUse" color-interpolation-filters="sRGB">
<feFlood flood-opacity="0" result="BackgroundImageFix"/>
<feColorMatrix in="SourceAlpha" type="matrix" values="0 0 0 0 0 0 0 0 0 0 0 0 0 0 0 0 0 0 127 0"/>
<feOffset dy="1"/>
<feGaussianBlur stdDeviation="3.5"/>
<feColorMatrix type="matrix" values="0 0 0 0 0 0 0 0 0 0 0 0 0 0 0 0 0 0 0.25 0"/>
<feBlend mode="normal" in2="BackgroundImageFix" result="effect1_dropShadow"/>
<feBlend mode="normal" in="SourceGraphic" in2="effect1_dropShadow" result="shape"/>
</filter>
</defs>
</svg>
